<?xml version="1.0" encoding="utf-8"?>
<!-- Generator: Adobe Illustrator 27.5.0, SVG Export Plug-In . SVG Version: 6.00 Build 0)  -->
<svg version="1.1" id="Layer_1" xmlns="http://www.w3.org/2000/svg" xmlns:xlink="http://www.w3.org/1999/xlink" x="0px" y="0px"
	 viewBox="0 0 2122 2122" style="enable-background:new 0 0 2122 2122;" xml:space="preserve">
<g>
	<rect style="fill:#FFFFFF;" width="2121.32" height="2121.32"/>
	
		<radialGradient id="SVGID_1_" cx="519.4185" cy="2119.397" r="636.2479" gradientTransform="matrix(1.583 0 0 0.8181 232.9645 -141.7973)" gradientUnits="userSpaceOnUse">
		<stop  offset="0.0049" style="stop-color:#00306C"/>
		<stop  offset="0.0097" style="stop-color:#02326D"/>
		<stop  offset="0.1295" style="stop-color:#3D618F"/>
		<stop  offset="0.2523" style="stop-color:#718BAD"/>
		<stop  offset="0.3753" style="stop-color:#9CAFC6"/>
		<stop  offset="0.4986" style="stop-color:#C0CCDB"/>
		<stop  offset="0.6223" style="stop-color:#DCE2EB"/>
		<stop  offset="0.7465" style="stop-color:#EFF2F6"/>
		<stop  offset="0.8719" style="stop-color:#FBFCFD"/>
		<stop  offset="1" style="stop-color:#FFFFFF"/>
	</radialGradient>
	<ellipse style="fill:url(#SVGID_1_);" cx="1055.204" cy="1592.082" rx="1007.191" ry="520.509"/>
	<g>
		<path style="fill:#FF3517;" d="M1688.751,432.569v1256.183H432.569V432.569H1688.751 M1710.849,410.472H410.472v1300.377h1300.377
			V410.472L1710.849,410.472z"/>
	</g>
	<g>
		<path style="fill:#00306C;" d="M416.299,793.16c1.134-2.031,2.269-4.063,3.814-6.831c-2.896,0.195-5.286,0.357-8.56,0.577
			c1.467-2.954,2.482-4.998,3.323-6.691c3.818-2.655,9.461-0.113,11.768-5.157c-0.61-3.427-4.243-1.592-5.539-3.372
			c-1.159-1.592-1.883-3.502-3.128-5.906c2.277-1.055,4.57-2.967,6.888-2.997c3.748-0.05,6.53-2.019,9.274-3.676
			c5.714-3.451,10.999-7.612,16.945-11.824c-0.915-2.066-1.81-4.09-2.708-6.118c2.44-1.173,5.16-2.466,7.867-3.789
			c0.911-0.446,1.875-1.5,2.663-1.368c7.349,1.234,9.928-4.031,12.78-9.051c0.823-1.448,1.893-2.755,2.255-3.275
			c9.116-4.809,18.131-2.023,26.71-3.385c1.461-0.232,3.154,0.757,4.694,1.309c6.832,2.444,13.202,1.449,19.183-2.499
			c6.25-4.125,12.729-7.312,20.474-7.924c4.287-0.339,8.591-1.984,11.445-5.677c1.915,0.398,3.526,0.732,5.198,1.08
			c3.999-6.58,9.45-11.164,17.096-12.925c3.941-0.908,7.771-2.322,11.728-3.133c8.42-1.727,15.799-5.979,23.27-9.789
			c10.791-5.504,21.469-11.172,32.537-16.156c6.99-3.147,13.256-7.888,19.902-11.821c7.832-4.635,15.998-8.496,25.032-10.204
			l-0.265-0.297c0.001,4.218-3.712,5.712-6.313,7.297c-8.049,4.904-16.504,9.139-24.78,13.671
			c-3.832,2.098-7.411,4.515-10.973,7.108c-5.646,4.109-12.279,6.983-18.735,9.831c-10.605,4.677-20.099,11.144-29.666,17.521
			c-0.81,0.54-1.366,1.46-1.988,2.146c-0.029,2.319,1.43,3.18,3.189,3.006c3.936-0.389,8.155,0.606,11.683-2.1
			c0.264-0.202,0.611-0.438,0.912-0.428c8.365,0.271,14.126-5.492,21.001-8.789c10.365-4.972,20.506-10.192,29.719-17.122
			c1.321-0.994,2.976-1.62,4.561-2.174c10.469-3.66,18.388-11.104,26.695-17.953c3.35-2.761,6.29-6.048,9.769-8.621
			c4.671-3.454,7.068-7.99,7.897-13.559l-0.198,0.233c1.595,0.086,3.216,0.39,4.778,0.205c2.135-0.255,3.432-1.664,3.413-3.879
			c-0.023-2.808-2.12-2.645-4.062-2.601l-0.073,0.077c1.17-1.2,2.163-2.682,3.541-3.554c7.93-5.018,15.126-11.275,24.211-14.365
			c6.709-2.281,11.821-7.827,18.948-9.343c0.837-0.178,1.535-1.296,2.171-2.08c4.082-5.029,9.342-7.619,16.136-7.514
			c2.908-8.307,11.345-7.028,17.024-10.395c2.036,1.664,0.686,2.543-0.192,3.483c-0.229,0.245-0.616,0.382-0.765,0.658
			c-4.88,9.001-13.261,13.71-21.938,18.144c-1.735,0.887-2.982,2.685-4.565,3.92c-2.349,1.832-4.383,3.858-7.472,4.966
			c-2.945,1.056-5.292,3.947-7.721,6.225c-2.178,2.044-4.472,4.154-4.188,8.183c0.937,0.376,2.101,1.242,3.266,1.242
			c6.032,0.001,11.292-2.482,15.564-6.43c7.49-6.925,16.598-11.523,24.521-17.793c5.295-4.19,11.32-7.161,17.362-10.084
			c0.163,0.603,0.157,1.552,0.527,1.733c0.717,0.35,1.645,0.276,2.49,0.329c0.024,0.002,0.219-0.686,0.102-0.789
			c-0.431-0.379-0.924-0.779-1.461-0.921c-0.608-0.161-1.287-0.052-1.934-0.061c1.18-1.139,2.196-2.973,3.569-3.296
			c6.088-1.434,9.981-5.633,13.078-10.431c2.552-3.951,5.77-6.843,9.516-9.483c2.97-2.092,5.656-4.609,8.314-7.102
			c0.614-0.576,0.599-1.823,1.1-3.536c-1.61,0-2.963-0.364-3.993,0.06c-5.575,2.297-11.142,4.64-16.555,7.288
			c-2.051,1.003-3.695,2.848-5.507,4.328c-4.715,3.848-9.877,6.894-15.724,8.665c-0.453,0.137-1.108-0.396-1.811-0.672
			c1.21-4.749,6.986-4.896,8.926-8.833c0,0-0.291,0.151-0.291,0.152c1.227-0.955,3.65-2.266,3.489-2.805
			c-1.198-4.002,1.293-6.4,4.054-7.066c6.856-1.653,11.725-6.183,17.106-10.086c1.89-1.371,4.115-2.273,6.113-3.509
			c1.103-0.684,2.32-1.431,3.029-2.464c4.371-6.363,10.289-10.33,17.569-12.877c3.338-1.169,6.231-3.801,9.099-6.057
			c1.872-1.474,3.023-0.475,4.38,0.511l-0.585,0.253l0.413-0.438c1.996-0.65,3.991-1.301,5.988-1.952l-0.219-0.229
			c-2.431,2.644-4.861,5.289-7.219,7.854c2.261,4.689,3.722,5.747,6.446,4.232c3.821-2.125,7.561-4.437,11.124-6.969
			c2.719-1.932,4.788-4.83,8.529-5.08c0.602-0.041,1.327-0.465,1.729-0.938c4.202-4.953,9.132-8.953,15.029-11.723
			c2.492-5.688,7.805-5.664,12.665-5.926c1.225-3.747-1.604-3.214-3.276-3.824l0.227,0.22c3.875-2.597,7.689-5.292,11.647-7.757
			c2.545-1.585,5.277-3.036,8.471-1.959c1.815,0.612,3.203,0.337,4.367-1.3c1.914-2.693,5.277-3.93,6.802-7.184
			c0.895-1.908,3.198-2.3,5.369-1.665l-0.181-0.25c-0.794,1.086-1.7,2.107-2.363,3.268c-2.266,3.972-0.934,6.999,2.815,9.9
			c5.052-3.911,10.223-7.444,14.831-11.599c5.891-5.312,12.229-7.994,20.132-5.694c3.077,0.895,5.366-0.404,6.835-2.933
			c0.559-0.961,0.2-2.457,0.258-3.689c-1.527-0.133-2.529-0.22-3.523-0.306c0-0.532-0.223-1.336,0.037-1.548
			c1.548-1.264,3.186-2.422,4.834-3.556c2.468-1.696,5.101-3.18,7.425-5.05c3.622-2.915,7.159-5.575,11.834-7.009
			c3.978-1.22,8.005-2.916,11.731-4.699c3.698-1.769,6.087-6.097,9.428-8.842c2.554-2.099,5.539-3.876,8.611-5.096
			c5.427-2.155,10.145-5.177,13.865-9.673c5.362,5.463,7.788,5.272,11.776-0.597c0.514-0.756,1.207-1.391,1.818-2.083l-0.187-0.206
			c0.28,0.498,0.561,0.995,0.841,1.492c0.488-0.496,0.976-0.994,1.464-1.49l-0.2,0.185c2.872-2.289,5.677-4.671,8.633-6.845
			c3.996-2.939,8.887-2.244,13.418-2.844c0.938-0.124,2.34,1.262,3.109,2.271c1.634,2.144,2.992,4.497,4.463,6.766
			c-0.999,3.128-2.183,6.212-2.93,9.398c-0.493,2.099,1.667,3.926,3.772,3.519c0.981-0.19,2.104-0.288,2.869-0.837
			c4.092-2.938,8.585-5.54,11.985-9.155c3.636-3.866,7.243-5.887,12.273-3.95c5.654-4.246,10.358-9.361,17.258-10.91
			c6.428-5.944,15.177-8.918,20.628-16.113l-0.242-0.095c0.633,1.434,0.904,3.321,1.99,4.192c1.483,1.19,3.586,1.605,5.272,2.291
			c4.395-1.931,8.578-3.769,13.395-5.885c0.806,1.296,1.474,2.722,2.458,3.876c1.838,2.155,3.799,2.604,6.169,1.406
			c2.614-1.321,4.642-3.989,8.065-3.371l-0.179-0.357c-4.503,6.431-11.001,9.95-18.321,11.883
			c-7.031,1.858-13.017,5.627-18.981,9.457c-1.921,1.234-4.381,3.099-4.735,5.019c-0.955,5.172-4.495,6.924-8.553,9.023
			c-6.421,3.32-11.635,7.99-13.186,15.653c-0.562,2.775,0.856,4.488,3.83,4.038c3.934-0.595,7.86-1.239,12.3-1.943
			c1.353-1.839,3.013-3.955,4.524-6.174c4.986-7.326,12.491-9.856,20.74-10.543c2.045-0.17,4.094,0.388,5.43-1.524
			c1.12-1.603,1.995-3.392,2.837-5.166c0.385-0.811,0.428-1.784,0.605-2.589c0.973-0.109,1.776-0.464,2.283-0.214
			c6.538,3.218,10.948-0.111,14.873-4.799c1.077-1.286,1.847-2.826,2.808-4.215c0.762-1.103,1.374-2.721,2.436-3.139
			c8.165-3.217,9.611-12.791,16.453-17.256c0.589-0.384,0.644-2.824,0.045-3.457c-0.665-0.705-2.512-0.871-3.584-0.506
			c-3.284,1.117-5.735,3.382-7.666,6.312c-1.055,1.601-2.547,2.913-4.124,4.67c-2.955-2.502-5.468-4.629-7.981-6.757l0.314,0.156
			c6.178-3.98,13.037-6.937,18.076-12.63c1.257-1.419,3.51-1.925,5.235-2.967c4.326-2.613,8.617-5.283,12.909-7.951
			c2.71-1.684,4.681-5.032,8.834-3.417c0.684,0.266,2.538-1.092,3.08-2.109c1.732-3.25,3.101-6.695,4.642-10.137
			c2.052-0.753,4.952-0.933,6.167-2.456c2.224-2.787,3.452-6.369,5.023-9.474c2.532-0.718,5.283-1.498,7.998-2.268
			c0.233,2.77,1.115,5.858,0.605,8.696c-1.159,6.452,1.957,11.006,5.659,15.507c3.176,3.861,6.335,7.736,9.38,11.455
			c3.217,0.377,5.353-0.715,7.121-3.161c3.144-4.352,6.536-8.525,9.749-12.675c4.54,0.566,3.911,5.482,7.5,7.579
			c2.925,0,6.583,0,10.76,0c2.152,5.53,4.401,10.595-0.153,16.036c-0.879,1.051-0.572,3.096-0.825,4.774
			c4.203,2.271,8.323,1.029,12.254,1.385l-0.183-0.14c1.448,1.422,3.388,2.593,4.26,4.309c3.517,6.919,9.704,7.249,15.614,5.504
			c5.034-1.486,9.923-1.921,14.96-1.69c3.662,0.169,6.661-0.87,9.173-3.411c4.008-4.053,8.332-7.667,10.57-13.365
			c1.987-5.058,6.655-8.298,10.502-11.535c8.118-0.169,10.582,6.919,15.878,10.825c-2.664,2.155-5.24,4.238-7.854,6.352
			c-0.104,2.895,0.8,5.977-2.304,8.258c-1.892,1.391-1.457,3.633-0.33,5.521c1.324,2.217,3.188,3.452,5.915,2.888
			c2.319-0.48,4.641-0.945,6.969-1.38c5.442-1.014,9.246-4.168,11.126-9.262c0.965-2.613,2.315-4.481,4.285-6.508
			c2.426-2.496,3.479-6.325,5.308-9.939c2.923-0.907,6.124-1.9,9.841-3.052c0.612-6.138,4.094-10.107,10.383-11.578
			c2.287-0.535,4.467-1.516,6.704-2.27c7.327-2.47,8.849-4.435,10.084-13.02c-3.254-2.273-6.505-4.543-9.877-6.898
			c0.97-4.291,1.841-8.138,2.725-12.046c-2.485-3.116-5.997-4.406-9.435-5.795c-3.449-1.394-6.838-3.029-10.403-4.014
			c-3.847-1.063-7.868-1.494-12.556-2.335c-0.843-0.766-2.222-2.222-3.805-3.405c-1.588-1.186-3.379-2.099-5.127-3.158
			c-0.281-2.938-0.537-5.599-0.792-8.259l-0.131,0.264c5.775-0.893,11.424-1.298,16.184,3.185c0.667,0.628,2.009,1.149,2.812,0.921
			c4.768-1.356,7.413,1.212,10.271,4.483c1.352,1.548,4.118,2.2,6.355,2.56c4.336,0.698,8.75,0.933,13.136,1.292
			c1.306,0.107,2.784,0.365,3.919-0.096c4.334-1.758,8.737-0.424,13.092-0.665c3.125-0.173,5.009,1.615,7.034,3.683
			c-0.336,2.47-1.447,5.248-0.794,7.517c0.538,1.872,3.167,3.143,4.872,4.682c0.421,1.808-1.184,2.137-2.141,2.962
			c-3.673,3.169-4.249,4.644-1.486,8.44c1.99,2.733,2.629,5.335,2.269,8.483c-0.61,5.326-1.151,10.66-1.763,16.388
			c1.981,2.093,5.258,3.559,6.026,7.349c0.28,1.385,1.96,3.219,3.301,3.52c4.427,0.997,7.07,3.896,9.104,7.494
			c1.014,1.793,2.319,2.492,4.089,2.032c2.375-0.618,2.918-2.759,2.84-4.805c-0.077-2.011-0.721-3.997-1.092-5.999
			c-0.299-1.615-0.56-3.238-0.901-5.218c6.824-2.697,12.212-0.396,17.199,3.368c2.627,1.984,4.942,4.382,7.688,6.854
			c0.541,5.002,0.541,5.002,5.926,9.716c8.697-4.509,17.621-9.136,27.036-14.018c1.59,0.424,3.851,1.121,6.153,1.623
			c5.476,1.197,6.723,0.561,9.583-4.663c0.637-1.162,1.227-2.351,1.973-3.785c4.925-0.622,10.523,0.135,12.636-7.94
			c1.334,3.205,2.114,4.128,1.956,4.846c-1.435,6.53-1.874,13.342-5.392,19.305c-0.853,1.446-1.285,3.133-2.072,4.625
			c-3.612,6.85-2.3,13.916-0.48,20.781c0.734,2.77,3.149,5.093,5.026,7.965c-1.585,6.7-5.082,12.932-8.476,19.026
			c-2.786,5.002-5.666,9.6-7.193,15.371c-1.405,5.31-3.589,10.821-7.308,15.405c-1.643,2.025-3.098,4.682-3.417,7.207
			c-0.772,6.117,2.619,11.644,3.393,17.648c0.468,3.631,3.467,6.478,6.927,8.339c0.557,0.3,0.913,0.975,1.349,1.464
			c2.196,7.069-0.673,13.83-1.375,20.687c-0.344,3.361-2.664,6.002-6.104,7.527c-3.388,1.502-6.592,3.446-9.801,5.324
			c-7.161,4.19-11.759,10.059-12.01,18.719c-0.029,0.999-0.383,1.984-0.513,2.985c-0.04,0.31,0.162,0.652,0.438,1.644
			c2.446,1.848,5.342,4.036,8.622,6.514c-2.856,3.843-5.432,7.307-7.782,10.468c-0.173,4.951,4.138,4.989,6.597,7.031
			c-0.382,0.924-0.761,1.845-1.141,2.766l0.197-0.829l0.069,0.59c-1.542,2.155-3.837,1.687-5.989,1.717l0.162,0.102
			c-0.799-0.001-1.598-0.002-2.398-0.002l0.259-0.226c-0.004,0.801-0.008,1.603-0.012,2.404l-0.139-0.163
			c-0.92,3.769-5.568,3.594-7.115,6.914c0.176,2.117,0.149,4.997,2.806,5.553c3.945,0.826,8.069,0.648,11.429-2.172
			c0.988-0.829,1.847-2.004,2.343-3.196c2.565-6.167,6.936-11.172,10.364-16.755c2.967-4.831,6.96-7.985,11.319-10.999
			c3.085-2.135,6.336-1.972,9.376,0.363l0.456,0.252l-0.72-0.172c0.83-0.452,1.66-0.904,2.451-1.334
			c0.563,0.608,1.394,1.132,1.327,1.484c-1.303,6.786,2.43,12.16,4.903,17.884l0.251-0.11c-0.792,0.799-1.586,1.598-2.378,2.398
			l0.118-0.167c-3.556,1.8-0.928,4.634-1.151,7.044c-2.575,1.357-5.853,1.856-6.804,5.302c-0.599,0.361-1.197,0.722-1.795,1.083
			c0.265,0.06,0.714,0.239,0.766,0.158c0.309-0.473,0.527-1.006,0.774-1.52c1.128,0.564,2.255,1.128,3.694,1.849
			c-1.465,1.814-2.603,3.32-3.842,4.736c-1.569,1.792-1.888,3.529-1.922,6.106c-0.038,2.921-0.443,6.731-3.846,9.046
			c-1.649,1.122-2.343,3.648-3.173,5.04c2.008,3.135,3.605,5.629,5.201,8.121c-0.591,0.219-2.155-0.253-0.902,1.273
			c0.24-0.486,0.48-0.972,0.72-1.458c0.894,0.316,1.849,0.521,2.671,0.971c2.091,1.142,3.513,0.886,4.285-1.584
			c0.144-0.457,0.911-0.719,1.391-1.07l-0.241-0.214c-0.596,1.899-0.936,3.935-1.859,5.658c-0.927,1.733-2.437,3.155-3.6,4.603
			c3.279,5.972,3.527,6.137,0.374,10.87c-2.001,3.005-1.978,6.885-4.951,9.507c-1.467,1.293,1.037,5.455,3.175,5.017
			c3.612-0.74,6.642-0.165,9.533,1.9c0,2.04,0,4.05,0,6.442c-1.068,0-2.101,0.258-2.929-0.046c-3.304-1.211-6.518-2.409-9.008,1.422
			c0.506,1.068,1.041,2.196,1.786,3.769c-3.351,1.386-6.571,2.719-9.665,4c0.525,4.012,2.905,5.975,5.118,8.052l-0.185-0.182
			c0.153,2.207,0.13,4.445,0.516,6.611c0.292,1.648-1.025,1.422-1.7,1.924c-4.886,3.635-5.619,9.032-6.024,14.482
			c-0.191,2.557,3.917,5.053,5.994,3.398c5.028-4.005,11.152-4.58,16.993-6.315c3.598-2.138,3.408-8.532,9.67-8.39
			c0.225,6.083-1.83,10.817-7.422,13.523c2.058,5.332,9.967,1.467,10.981,7.754c-4.282,1.523-8.286,1.727-12.284-1.087
			c-1.531-1.078-3.96-1.567-5.082,1.386c1.439,1.708,2.845,3.52,4.413,5.18c0.912,0.965,2.113,2.436,3.133,2.396
			c7.782-0.303,12.223,6.791,19.12,8.392c1.735,0.403,2.342,3.546,0.932,4.073c-3.295,1.232-4.473,3.504-5.196,6.737
			c-0.474,2.121-2.148,3.975-3.542,6.395c8.099,4.709,15.964,8.222,24.926,8.561c1.604,0.06,3.599-0.108,4.79-1.002
			c4.607-3.456,9.719-5.81,14.982-8.003c1.769-0.737,3.361-2.122,4.754-3.495c4.591-4.525,8.577-4.682,12.72-0.329
			c2.069,2.174,4.162,4.325,6.793,7.055c-0.292,1.968-0.676,4.556-1.165,7.846c1.389,0.766,3.035,1.674,5.004,2.761
			c10.761-12.473,21.282-24.667,32.026-37.119c2.976,3.03,5.479,5.577,8.19,8.338c3.556-2.81,6.655-5.258,9.486-7.495
			c1.166,0.246,2.023,0.164,2.398,0.55c2.307,2.378,4.352,5.028,6.779,7.266c2.537,2.339,6.334-0.026,9.417,2.521
			c1.883,1.556,5.745,0.716,9.276,0.996c0.857,3.172,0.032,6.463-0.362,9.694c-0.366,3.005-1.506,5.956-1.586,8.949
			c-0.148,5.641-1.04,10.788-5.904,14.413c-4.218,11.048-13.351,18.528-20.234,27.634c-1.298,1.717-2.31,3.094-2.216,5.305
			c0.239,5.61-0.932,10.774-5.221,14.835c-0.467,0.443-0.671,1.167-0.989,1.765c-2.632,4.953-1.447,8.557,3.633,10.561
			c1.555,0.613,3.288,0.775,4.939,1.144l-0.203-0.239c-0.423,0.898-1.433,2.042-1.176,2.654c1.823,4.333,1.283,8.504-0.685,12.231
			c3.516,4.716,6.685,8.966,10.023,13.442c4.52-0.028,9.158-0.461,14.184,3.219c0.333,0.771,0.089,2.87-1.978,4.752
			c-1.999,1.819-3.759,3.9-5.751,5.727c-2.684,2.461-3.687,5.561-3.96,9.452c1.713,1.217,3.594,2.552,5.47,3.884
			c-1.424,2.705-2.338,4.441-3.228,6.133c0.731,2.965,6.119,7.66,8.791,7.53c0.944-0.046,2.26-0.359,2.728-1.026
			c3.485-4.976,8.171-3.737,12.765-2.565c3.556,0.908,7.028,2.146,10.413,3.199c2.132-1.356,4.093-2.604,5.895-3.749
			c4.067,0.98,5.798,3.798,7.256,6.622c-0.042,3.315-2.943,3.548-4.558,5.084c-4.164,3.961-7.945,8.242-14.209,9.016
			c-1.46,0.18-2.819,1.771-4.076,2.881c-2.778,2.456-5.638,4.859-8.13,7.589c-1.958,2.145-3.414,4.748-4.498,6.298
			c-0.075,4.156,6.621,2.73,3.214,7.131c1.287,0.424,1.92,0.854,2.492,0.785c4.352-0.527,8.11-1.872,11.958-4.552
			c6.79-4.728,13.814-9.167,22.63-10.448c9.073-1.318,16.85-6.604,24.282-11.89c2.825-2.009,5.656-3.086,9.086-3.846
			c3.751-0.832,7.931-0.77,11.311-3.353c2.267-1.733,5.053-1.726,7.783-0.945l-0.205-0.193c-0.251,0.974-1.042,2.44-0.672,2.848
			c4.254,4.682,6.36,11.15,12.676,14.969c3.908-0.105,8.439-0.274,10.57-5.098c2.109-4.775,0.893-7.569-4.846-13.041
			c2.401-1.783,4.735-2.308,7.271-0.586c1.677,1.139,3.275,2.398,4.864,3.659c1.587,1.259,3.119,2.588,4.474,3.717
			c0,3.398,0.095,6.103-0.024,8.797c-0.141,3.174,0.714,6.032,2.329,8.703c0.876,1.449,2.037,2.763,2.697,4.298
			c2.637,6.132,4.963,12.002,4.081,19.287c-1.227,10.133-2.868,19.938-6.02,29.715c-3.09,9.585-4.226,19.785-6.617,29.618
			c-1.106,4.551-3.006,8.935-4.813,13.283c-3.754,9.036-7.822,17.943-11.506,27.007c-3.566,8.772-8.127,17.021-12.323,25.471
			c-5.778,11.636-14.57,20.965-21.542,31.635c-4.784,7.322-9.575,14.669-13.811,22.311c-4.976,8.974-11.478,16.87-18.405,24.115
			c-6.684,6.991-11.427,14.945-16.216,23.053c-0.505,0.854-0.851,1.85-1.056,2.825c-1.749,8.339-1.733,8.342-6.203,14.454
			c0.414,1.117,0.802,2.408,1.36,3.622c1.425,3.099,1.003,5.876-1.119,8.527c-2.75,3.435-5.174,7.008-6.751,11.241
			c-1,2.683-1.724,4.78-0.277,7.595c1.299,2.524,0.544,5.353-1.263,7.625c-2.514,3.161-4.887,6.498-7.783,9.277
			c-6.317,6.062-12.676,12.156-21.062,15.447c-0.935,0.367-1.726,1.335-2.653,1.446c-6.528,0.779-10.641,5.356-15.274,9.255
			c-4.649,3.913-9.666,7.384-14.42,11.178c-6.841,5.461-14.2,10.354-19.589,17.451c-7.061,2.395-10.394,9.298-16.132,13.41
			c-5.369,3.849-9.788,9.057-14.478,13.812c-7.359,7.461-14.407,15.24-21.942,22.517c-6.499,6.276-13.785,11.821-18.864,19.388
			c-2.057,3.063-6.252,3.479-7.441,7.873c-0.888,3.283-4.303,5.922-6.719,8.74c-2.401,2.802-4.935,5.493-7.458,8.188
			c-1.382,1.476-2.714,3.063-4.325,4.25c-7.128,5.25-11.682,13.01-18.385,18.66c-0.259,0.218-0.543,0.441-0.712,0.723
			c-9.779,16.341-25.983,26.209-39.412,38.844c-8.6,8.092-18.12,15.206-27.228,22.758c-2.034,4.411-7.59,4.606-10.135,9.145
			c-2.128,3.795-7.095,5.968-10.716,8.967c-3.616,2.993-6.906,6.427-10.739,9.094c-3.49,2.428-5.888,5.574-7.861,9.115
			c-4.029,7.235-9.762,12.827-16.052,18.089c-8.263,6.914-16.131,14.301-24.794,20.308c0.61,5.96-1.482,10.742-5.417,13.949
			c-9.153,7.458-17.335,15.986-26.527,23.374c-0.789,0.634-1.685,1.136-2.532,1.699c0,0.001-0.339-0.401-0.339-0.401l0.509,0.261
			c-9.28,7.131-18.537,14.293-27.847,21.386c-7.454,5.679-14.971,11.275-22.459,16.906c-3.049-0.175-2.666,3.523-4.862,4.31
			l0.129,0.284c-0.8-1.349-1.613-1.641-2.451-0.032l0.206-0.313c0.024,0.85,0.049,1.699,0.074,2.549l-0.328-0.13
			c-10.562,8.39-21.15,16.745-31.678,25.175c-12.9,10.33-24.849,21.859-39.288,30.25c-3.381,1.964-5.756,5.604-8.766,8.281
			c-2.504,2.227-5.151,4.332-7.931,6.201c-3.625,2.437-7.75,4.207-11.12,6.933c-9.229,7.467-19.158,13.89-28.958,20.536
			c-9.208,6.245-17.997,13.106-27.146,19.443c-6.089,4.218-12.354,8.222-18.797,11.87c-3.172,1.796-7.01,2.375-10.38,3.88
			c-1.755,0.784-4.167,2.147-4.511,3.653c-0.971,4.263-4.721,4.606-7.467,6.194c-5.529,3.198-6.443,2.615-8.782-4.869
			c2.014-2.317,4.163-4.851,6.377-7.327c3.544-3.963,7.58-6.556,13.333-5.706c1.828,0.271,4.294-0.236,5.714-1.35
			c6.631-5.198,13.001-10.73,19.453-16.154c0.251-0.211,0.399-0.544,0.798-1.108c-0.224-2.301-0.474-4.866-0.745-7.643
			c-0.765-0.047-1.947-0.495-2.706-0.11c-11.116,5.626-22.194,11.327-33.24,17.088c-7.415,3.867-15.34,6.615-22.74,10.505
			c-5.687,2.99-11.319,6.091-17.091,8.904c-2.319,1.13-4.948,1.623-7.502,2.426c-0.222-1.243-0.297-1.9-0.462-2.533
			c-0.331-1.27-0.326-3.038-1.163-3.67c-1.238-0.935-3.114-1.498-4.669-1.405c-1.538,0.092-3.038,1.149-4.514,1.864
			c-6.801,3.295-13.716,5.89-21.878,3.409c-0.661,2.073-1.26,3.944-1.956,6.128c-10.424,4.663-21.12,9.555-31.925,14.189
			c-2.078,0.891-4.63,1.219-6.89,1.011c-2.596-0.239-5.087-1.819-7.669-1.958c-2.147-0.116-4.362,1.014-7.57,1.861
			c1.039-2.176,1.353-3.527,2.171-4.41c2.097-2.262,2.604-4.724,1.336-7.444c-0.919-1.973-1.597-4.204-0.082-5.731
			c3.734-3.766,2.972-7.93,1.846-12.271c-0.334-1.288-0.699-2.568-1.05-3.852c0.211-0.04,0.423-0.08,0.634-0.119
			c-0.233,0.091-0.465,0.183-0.698,0.275c-2.873-3.589-7.579-2.287-11.184-4.079c-1.137-0.565-3.257,0.441-4.761,1.104
			c-3.695,1.628-7.229,3.637-10.962,5.164c-1.783,0.729-3.868,0.955-5.82,0.974c-2.823,0.029-3.07-0.386-5.245-5.534
			c4.025-3.906,7.679-8.551,4.684-14.815c-2.651-5.545-5.46-11.256-15.31-9.942c3.69-3.234,6.169-4.967,8.087-7.185
			c3.236-3.739,1.342-8.56-3.615-8.698c-5-0.139-10.271-0.243-14.82,2.349c-3.745,2.133-7.156,4.854-11.618,7.938
			c-1.084-0.151-3.375-0.47-5.527-0.77c-0.377-0.813-0.952-1.44-0.861-1.95c0.923-5.185,1.954-10.352,3.032-15.921
			c-5.974-1.963-9.147-6.145-10.52-11.62c-0.362-1.447-0.178-3.801,0.752-4.666c3.5-3.253,2.917-7.272,3.005-11.105
			c-1.701-1.739-3.269-3.342-4.836-4.945c0.193-0.064,0.387-0.128,0.58-0.192c-0.211,0.119-0.421,0.237-0.633,0.356
			c-12.732,3.287-25.17,7.393-36.911,13.403c-3.593,1.839-7.137,3.774-10.676,5.652c-1.475-1.22-1.165-2.423,0.115-3.253
			c2.256-1.462,4.677-2.668,6.971-4.075c3.863-2.373,7.065-5.261,7.392-10.75c-1.321-1.835-2.878-4.001-4.52-6.282
			c0.605-1.783,0.712-4.196,1.972-5.392c2.952-2.804,3.073-5.626,1.746-9.109c-0.44-1.155-0.069-2.619-0.069-4.025
			c2.808-2.131,5.568-4.016,8.076-6.192c2.348-2.038,3.701-4.539,3.759-7.945c0.053-3.149-1.441-5.04-3.867-7.263
			c-3.92,1.455-8.308,2.942-10.17,7.174c-2.054,4.668-5.386,6.851-10.065,7.14c-5.965,0.368-9.011,3.818-10.369,9.116
			c-2.474,0.87-4.648,1.858-6.928,2.378c-2.748,0.628-4.749,2.11-6.884,3.897c-3.036,2.543-6.529,4.649-10.077,6.45
			c-10.506,5.332-20.955,10.761-31.016,16.898c-2.589,1.579-4.813,3.81-7.493,5.172c-2.602,1.321-4.577,4.04-8.097,3.642
			c-1.05-0.119-2.664,0.792-3.315,1.724c-4.892,7-12.88,9.633-19.575,14.044c-10.106,6.659-20.507,12.873-30.586,19.573
			c-3.046,2.025-5.433,5.037-8.133,7.584c-1.949,1.84-3.787,3.833-5.918,5.435c-1.646,1.239-3.342,1.903-2.692,4.67
			c0.178,0.759-2.063,2.628-3.494,3.122c-5.093,1.755-10.229,3.667-15.511,4.514c-5.475,0.879-10.361,2.472-15.069,5.46
			c-3.245,2.058-6.466,5.145-11.016,3.952l-0.062,0.225c0.217-1.629,0.435-3.257,0.738-5.521
			c-8.248-2.632-16.031-5.695-24.769-0.396c-1.926-1.419-4.036-2.972-6.126-4.511c-2.966-0.417-5.24,0.921-7.394,2.722
			c-1.72,1.438-3.906,1.847-5.636,0.508c-2.56-1.982-5.072-1.682-7.614-0.548c-3.803,1.698-7.68,2.319-11.655,1.886
			c-2.439-2.73-3.111-5.75-1.954-8.686c2.156-5.474,1.047-10.66-1.042-15.639c-1.434-3.419-1.221-6.237-0.004-9.69
			c2.35-6.675,1.262-8.758-4.065-13.15c-2.061-1.699-4.293-2.244-6.588-1.87c-2.63,0.429-5.186,1.466-7.69,2.452
			c-1.563,0.615-2.92,1.731-4.456,2.436c-8.103,3.722-9.667,1.511-12.843-3.234c-0.745-1.114-1.559-2.181-2.363-3.298
			c-8.222-2.497-16.02-2.264-23.486,2.328c-1.371,0.844-3.192,1.453-4.766,1.378c-5.562-0.267-10.742,1.169-15.794,3.133
			c-6.882,2.677-13.116,2.293-18.973-2.667c-2.27-1.922-4.942-3.253-8.238-3.55c-3.467-0.312-4.191-2.451-2.466-5.754
			c2.185-4.183,4.442-8.333,6.824-12.406c1.839-3.141,2.199-5.952,0.538-9.515c-1.209-2.593-0.787-5.931-1.178-8.925
			c-0.789-6.033-4.003-9.217-10.062-9.188c-5.407,0.026-10.807,0.762-16.218,1.057c-2.318,0.127-4.723,0.273-6.969-0.182
			c-4.98-1.009-9.822-2.115-15.032-1.128c-2.083,0.396-4.948-0.307-6.667-1.578c-5.403-3.993-11.961-6.288-16.55-11.473
			c-2.751-3.109-6.031-5.275-10.493-5.455c-1.514-0.061-2.975-1.457-4.402-2.212c-3.072-6.662-0.927-12.724,2.314-18.388
			c1.652-2.888,3.279-5.742,4.801-8.703c1.494-2.904,4.243-5.249,6.72-7.538c3.119-2.883,4.853-6.376,6.033-11.061
			c-9.238-0.316-18.354-2.97-25.768,4.461c-2.252-0.543-4.157-1.003-6.282-1.514c0-2.375-0.105-4.352,0.021-6.313
			c0.275-4.282,1.492-8.437-0.365-12.83c-1.676-3.966-0.217-7.65,2.178-11.386c7.472-11.651,16.483-22.232,23.417-34.272
			c1.753-3.044,5.288-5.082,8.063-7.514c2.901-2.541,2.449-5.456-1.302-6.762c-2.202-0.766-4.576-1.04-6.567-1.469
			c-8.754,5.941-11.455,17.306-21.748,21.895c-1.978-2.865-3.792-5.493-5.821-8.432c-1.542,0.896-2.856,1.345-3.74,2.226
			c-5.507,5.494-10.89,11.112-16.37,16.634c-2.85,2.872-3.997,6.064-3.006,10.144c0.541,2.229,0.693,4.677,0.399,6.946
			c-0.242,1.869,0.094,3.266,1.162,4.669c2.179,2.862,0.46,5.134-1.327,7.198c-1.502,1.735-3.685,2.085-5.48,0.714
			c-2.896-2.211-5.515-4.785-8.56-7.481c1.385-5.432-1.385-11.001,0.857-16.634c0.631-1.585,0.071-4.321-0.982-5.776
			c-3.668-5.07-2.982-10.125-0.915-15.396c0.115-0.295,0.015-0.673,0.015-1.683c-3.946-2.615-3.461-7.84-5.433-12.304
			c-1.241-0.382-2.482-0.793-3.739-1.148c-8.997-2.536-8.998-2.532-16.115,2.87c-1.795-2.289,0.055-3.985,1.297-5.258
			c3.767-3.863,7.414-7.839,11.127-11.732c7.214-7.564,15.309-14.281,22.927-21.466c8.618-8.127,17.147-16.35,25.604-24.644
			c0.77-0.755,1.324-2.662,0.899-3.451c-0.475-0.88-2.208-1.564-3.353-1.507c-3.002,0.149-5.987,0.72-8.97,1.175
			c-1.963,0.299-3.911,0.69-5.855,1.039c-0.82-0.987-1.439-1.763-2.09-2.51c-1.282-1.471-2.322-3.633-3.934-4.227
			c-2.621-0.967-5.471,0.105-7.486,2.044c-2.675,2.574-5.021,5.489-7.489,8.275c-2.015,2.275-3.793,4.808-6.041,6.818
			c-4.276,3.826-9.349,6.888-13.087,11.149c-3.706,4.224-6.073,9.602-9.228,14.34c-1.663,2.498-3.318,5.21-6.703,5.899
			c-3.964-0.748-5.616-3.765-5.886-7.249c-0.211-2.744,1.554-4.787,3.967-6.583c3.233-2.407,6.086-5.424,8.728-8.501
			c3.959-4.61,7.454-9.575,13.112-12.47c1.688-0.863,2.75-2.904,4.181-4.323c1.404-1.393,2.701-3.357,4.412-3.889
			c5.47-1.704,7.735-6.427,10.604-10.506c2.297-3.264,2.301-7.285,0.542-10.665c-1.693-3.253-4.335-6.036-6.697-8.913
			c-2.555-3.111-6.294-3.599-9.932-3.647c-2.628-4.368-3.48-8.374-1.514-12.883c2.182-5.004,4.053-9.956,9.984-12.039
			c2.755-0.968,5.109-3.17,7.537-4.958c5.214-3.838,10.618-7.173,17.224-8.081c1.626-0.224,3.268-0.841,4.739-1.598
			c10.494-5.392,20.598-11.462,30.536-17.813c5.393-3.446,10.635-7.183,16.257-10.205c13.14-7.06,24.789-16.336,37.221-24.442
			c6.564-4.28,12.313-9.481,16.753-15.984c0.906-1.327,1.258-3.031,2.132-5.235c-7.999-1.27-15.077-1.745-21.069,4.145
			c-3.692,3.629-7.572,6.935-13.367,5.596l0.165,0.197c2.185-1.98,4.306-4.034,6.566-5.923c4.392-3.674,9.02-7.081,13.263-10.915
			c6.753-6.104,12.982-12.816,19.978-18.612c5.835-4.834,10.092-10.772,14.25-16.868c3.052-4.475,6.157-8.841,10.249-12.458
			c2.838-2.507,2.762-2.594,4.126-8.586c-1.729-1.998-3.627-1.245-5.434-0.211c-10.587,6.057-20.184,13.482-29.083,21.766
			c-4.166,3.878-9.127,7.015-11.802,12.46c-0.784,1.595-3,2.598-4.719,3.6c-5.569,3.251-10.743,6.943-15.523,11.34
			c-6.703,6.165-13.937,11.718-22.389,15.464c-1.69-1.327-0.373-2.432,0.445-3.25c5.968-5.987,11.98-11.932,18.064-17.801
			c1.698-1.638,3.651-3.021,5.544-4.445c6.767-5.091,13.618-10.03,16.537-18.622c0.715-2.104,2.722-3.737,3.716-5.79
			c0.658-1.36,0.569-3.08,0.792-4.497c-2.077-2.364-4.011-1.037-5.476,0.178c-4.154,3.446-8.353,6.901-12.052,10.81
			c-3.55,3.752-7.551,6.678-11.953,9.283c-3.189,1.887-5.958,4.472-9.074,6.5c-1.262,0.821-2.949,0.988-5.578,1.805
			c1.624-5.115,5.294-7.209,7.576-10.238c2.394-3.178,5.443-5.868,5.479-10.004c-1.434-1.865-2.818-0.97-3.792-0.302
			c-2.224,1.525-4.265,3.319-6.358,5.032c-4.45,3.64-8.71,7.468-14.059,9.935c-2.688,1.24-4.97,3.446-7.282,5.396
			c-5.175,4.361-10.044,9.109-15.418,13.2c-9.703,7.385-18.333,15.988-27.674,23.776c-2.073,1.729-3.741,4.089-6.702,4.248
			c-1.24,0.066-3.104-0.028-3.633-0.784c-0.856-1.224-1.352-3.156-1.061-4.6c0.309-1.534,1.424-3.218,2.684-4.197
			c9.171-7.123,15.156-17.121,23.098-25.348c3.014-3.122,5.995-6.251,7.999-10.327c1.444-2.939,4.058-5.38,6.427-7.768
			c3.578-3.606,7.225-7.181,11.161-10.379c4.01-3.259,5.451-7.455,6.192-12.547c-2.063-1.369-3.966-2.633-5.553-3.685
			c-1.206,0.381-1.976,0.412-2.445,0.804c-13.253,11.084-26.471,22.21-39.714,33.308c-1.293,1.083-2.639,2.132-4.071,3.018
			c-4.322,2.67-5.516,2.342-10.573-3.035c8.113-9.13,16.851-18.096,19.856-31.396c-1.299,0-2.513-0.267-3.557,0.043
			c-8.352,2.476-14.491,8.524-21.386,13.366c-3.858,2.709-7.835,5.248-11.759,7.864l0.16,0.197c0.72-4.87,5.201-6.734,8.073-9.807
			c6.435-6.888,13.042-13.538,17.367-22.121c1.469-2.916,3.7-5.616,6.101-7.861c4.884-4.566,8.345-9.468,7.671-16.629
			c-0.275-2.93,0.466-5.955,0.73-8.77c-4.277-5.826-10.027-5.679-15.496-3.421c-5.668,2.34-11.3,4.145-17.395,4.913
			c-2.928,0.369-5.87,1.672-8.505,3.105c-5.068,2.754-9.676,2.302-14.077-1.17c-2.638-2.08-5.197-4.268-7.698-6.513
			c-2.744-2.464-5.381-5.048-8.384-7.88c-2.326,1.087-4.592,1.756-6.388,3.068c-3.629,2.65-7.308,3.122-11.352,1.303l-0.025,0.283
			c0.772-2.579,1.544-5.157,2.465-8.233c-3.189-4.038-5.869-8.421-5.442-14.267c0.173-2.372-2.031-4.869-2.951-7.383
			c-1.583-4.321-1.931-8.35,1.578-12.282c1.942-2.176,3.073-5.204,4.126-8.014c1.318-3.518-1.198-7.252-4.914-7.041
			c-2.583,0.146-5.261,1.091-7.615,2.25c-3.934,1.938-7.761,4.155-11.414,6.584c-4.1,2.727-8.496,3.69-13.348,4.075
			c-4.376,0.347-8.208,0.211-10.632-3.879c-1.9-3.204-5.674-1.648-8.394-3.818c0.978-4.458,2.9-8.503,6.142-11.999
			c3.731-4.024,6.755-8.435,6.509-14.972c-2.613-1.81-5.566-3.857-8.386-5.811c-6.412-0.941-9.178,5.198-15.573,7.604
			c2.476-3.566,4.126-5.942,5.982-8.614c0.033-0.24,0.297-0.907,0.179-1.498c-1.516-7.599-2.725-8.641-9.714-8.452
			c-1.353,0.038-2.714,0.069-4.053,0.247c-2.013,0.267-4.008,0.661-6.171,1.027c-2.256-2.173-3.202-4.736-2.583-8.04
			c0.485-2.596,1.279-5.577,0.473-7.872c-1.308-3.725-0.932-6.213,2.04-8.828c1.02-0.898,0.815-3.133,1.282-4.724
			c1.21-4.125,2.667-7.52,7.051-10.045c5.438-3.132,9.802-8.129,14.629-12.321c0.24,0.143,0.481,0.285,0.721,0.427
			c-0.284-0.098-0.568-0.197-0.852-0.295c4.795-2.388,9.38-4.847,13.247-8.887c3.812-3.983,8.857-6.754,13.092-10.371
			c3.016-2.575,5.852-5.109,6.78-9.69c0.794-3.913,5.211-6.197,8.588-8.016c2.006-1.081,3.941-2.109,5.737-3.557
			c2.616-2.109,5.221-4.305,8.952-4.232c0.927,0.018,1.939-0.549,2.789-1.054c8.07-4.789,16.19-9.501,24.112-14.527
			c2.015-1.279,3.688-2.805,6.254-2.876c0.931-0.026,1.979-0.604,2.741-1.219c12.313-9.935,26.762-16.787,38.892-26.981
			c1.556-1.309,3.003-2.975,4.811-3.712c4.338-1.768,7.165-4.867,9.53-8.745c2.539-4.164,6.146-6.813,11.057-8.22
			c3.73-1.069,6.947-3.316,9.951-6.393c4.906-5.023,11.032-8.868,16.722-13.105c3.663-2.727,6.33-5.94,6.687-10.446
			c-1.754-1.978-3.459-1.244-4.846-0.465c-5.901,3.318-11.854,6.579-17.518,10.274c-4.764,3.11-10.075,5.292-14.334,9.359
			c-1.978,1.888-5.616,3.229-8.288,2.928c-4.241-0.477-7.145,1.218-10.259,3.312c-2.233,1.502-4.499,3.026-6.936,4.127
			c-1.424,0.643-3.323,0.933-4.816,0.578c-3.343-0.796-5.588,0.712-6.394,3.414c-1.715,5.753-6.861,7.063-11.13,9.588
			c-7.093-2.693-11.328,4.849-17.67,4.975c-0.888,0.018-1.905,0.749-2.615,1.414c-11.16,10.45-24.612,17.799-36.633,27.084
			c-1.274,0.983-2.984,1.96-4.504,1.979c-11.781,0.148-20.018,7.146-28.268,14.21c-0.987,0.845-2.029,2.021-3.182,2.21
			c-5.606,0.919-9.848,4.291-14.297,7.376c-6.663,4.622-13.252,9.377-20.144,13.635c-4.692,2.899-9.006,5.904-11.764,10.856
			c-0.572,1.028-2.193,1.47-3.866,2.516c-1.159-1.721-2.129-3.358-3.289-4.848c-2.875-3.693-5.535-7.397-10.926-8.099
			c-3.893-0.507-4.627-3.47-2.272-6.551c8.739-11.436,10.193-12.868,23.101-21.868c7.698-5.367,15.467-10.691,23.408-15.624
			c4.524-2.811,9.357-5.26,13.834-8.278c1.35-0.91,3.114-1.201,4.679-1.798c1.875-0.715,4.286-0.949,5.513-2.274
			c5.036-5.437,11.912-7.45,18.196-10.604c2.384-1.197,4.68-2.677,6.767-4.34c5.048-4.025,10.38-7.467,16.342-10.059
			c3.676-1.599,7.013-3.991,10.465-6.086c1.147-0.697,2.093-2.096,3.281-2.297c10.453-1.774,16.952-10.539,26.127-14.641
			c4.514-2.018,8.205-5.824,12.383-8.653c7.799-5.28,15.332-11.096,23.614-15.48c10.756-5.694,20.351-13.067,30.65-19.392
			c1.992-1.223,3.815-2.745,5.616-4.248c8.294-6.919,16.604-13.72,26.341-18.705c4.864-2.491,7.9-7.28,9.312-12.656
			c0.363-1.382-0.197-3.484-1.12-4.615c-1.44-1.767-3.55-2.988-5.062-4.19c-19.597,10.995-38.741,21.73-57.874,32.483
			c-2.363,1.328-4.788,2.594-6.978,4.173c-6.614,4.77-13.638,8.782-20.818,12.653c-7.133,3.845-13.686,8.758-20.527,13.149
			c-1.982,1.272-4.028,2.469-6.136,3.516c-14.233,7.071-28.465,14.103-41.636,23.131c-5.568,3.817-11.811,6.636-17.558,10.212
			c-6.875,4.277-13.577,8.837-20.302,13.353c-6.99,4.695-13.951,9.437-20.86,14.249c-4.123,2.872-8.124,5.918-12.165,8.876
			c-5.798-6.671-7.806-7.878-14.468-7.663c-2.279,0.074-5.082,0.396-6.692,1.743c-6.297,5.266-14.214,7.665-20.805,12.364
			c-3.648,2.601-6.642,5.471-8.626,9.649c-1.552,3.267-4.134,6.044-6.192,8.944c-7.626-3.783-8.915-9.053-4.022-14.384
			c1.372-1.494,3.205-2.722,4.114-4.447c1.226-2.327,2.899-3.564,5.33-4.12c3.757-0.86,6.646-3.11,9.464-5.641
			c2.695-2.42,4.977-5.177,9.002-6.238c2.537-0.669,4.457-3.91,6.507-6.132c2.06-2.231,3.766-4.746,7.243-5.084
			c1.181-0.115,2.621-0.942,3.337-1.897c3.212-4.279,7.958-6.186,12.481-8.42c7.248-3.581,13.854-8.215,19.638-13.707
			c3.581-3.401,6.154-8.039,8.482-12.487c0.762-1.456,1.173-2.766,2.63-3.753c6.042-4.092,12.957-5.465,19.94-6.707
			c2.616-0.466,5.35-0.717,7.777-1.697c5.012-2.023,10.512-3.646,14.612-6.931c6.392-5.121,13.786-8.153,20.698-12.169
			c4.343-2.523,8.941-4.816,12.728-8.033c4.003-3.402,8.676-5.143,13.21-7.351c4.64-2.26,8.68-5.34,11.385-9.78
			c0.98-1.609,1.166-3.703,1.813-5.911c-8.183-1.626-14.03,2.749-20.055,6.066c-2.108,1.161-3.86,2.674-6.431,2.272
			c-0.053-0.192-0.106-0.383-0.159-0.575c0.11,0.231,0.222,0.463,0.332,0.694c-0.984,1.851-2.587,2.129-4.449,1.749l0.244,0.302
			c-0.13-2.662-0.261-5.325-0.355-7.243c4.645-3.274,8.958-5.813,12.648-9.061c3.387-2.981,8.602-1.623,11.403-5.459
			c5.982-1.89,9.384-7.51,14.611-10.284c5.249-2.786,11.345-3.966,16.634-6.695c4.721-2.435,8.839-6.037,13.243-9.094
			c1.644-1.141,3.214-2.747,5.048-3.193c6.035-1.464,8.843-5.633,10.512-11.627c-0.977-1.681-2.133-3.67-3.373-5.804
			c1.485-3.703,4.511-6.28,7.953-8.513c1.69-1.097,3.265-2.371,4.885-3.575c2.884-2.145,3.294-4.87,1.864-8.019
			c-10.244-2.323-10.582-3.119-16.878,7.288c-2.99,1.209-6.09,2.462-9.189,3.714L416.299,793.16z M512.143,1489.509l0.457-0.196
			l-0.197,0.46c-0.2,0.105-0.399,0.21-0.599,0.315C511.917,1489.895,512.03,1489.702,512.143,1489.509z M540.723,731.906
			c0.154-0.233,0.307-0.468,0.461-0.702c-0.123,0.273-0.246,0.545-0.368,0.818c-0.226,0.07-0.452,0.139-0.678,0.208
			C540.333,732.121,540.529,732.014,540.723,731.906z M1760.667,884.926c-0.16,0.493-0.319,0.987-0.478,1.48
			c0.091-0.569,0.181-1.137,0.271-1.707c0.533-0.084,1.067-0.169,1.599-0.253c-0.21-0.332-0.42-0.664-0.63-0.996
			C1761.175,883.942,1760.921,884.434,1760.667,884.926z M1473.119,377.384c-2.308-0.027-4.654-0.306-6.906,0.038
			c-0.975,0.149-2.242,1.452-2.514,2.463c-0.488,1.816,1.295,2.01,2.507,2.031c3.164,0.056,5.819-1.078,7.541-3.906
			c0.386-0.524,0.773-1.049,1.159-1.573C1474.309,376.752,1473.714,377.068,1473.119,377.384z M416.325,1550.788
			c1.371-0.871,2.952-1.531,4.078-2.649c5.272-5.233,10.302-10.715,15.64-15.878c7.505-7.258,13.826-15.8,23.596-20.622
			c3.555-1.754,6.061-5.267,8.104-8.91c1.104-1.969,2.741-3.743,4.449-5.25c7.6-6.707,15.375-13.214,22.924-19.977
			c1.366-1.224,1.97-3.301,3.409-5.836c-2.163,0-3.716-0.47-4.581,0.102c-1.605,1.06-3.354,2.503-4.053,4.195
			c-1.131,2.739-2.963,4.405-5.4,5.765c-2.364,1.32-4.738,2.665-6.931,4.243c-4.377,3.15-8.634,6.466-12.941,9.715
			c-1.092,5.846-6.273,7.282-10.492,9.781c-1.157,0.685-2.267,1.499-3.262,2.404c-10.785,9.824-20.53,20.648-30.129,31.601
			c-1.771,2.021-3.348,4.34-4.436,6.779c-0.574,1.287,0.102,3.132,0.213,4.724c-0.252,0.066-0.533,0.086-0.745,0.218
			c-0.116,0.073-0.113,0.335-0.164,0.512C415.844,1551.4,416.085,1551.094,416.325,1550.788z M939.553,1667.132
			c0.052,0.19,0.102,0.379,0.153,0.57c-0.117-0.215-0.235-0.43-0.353-0.645c2.711-1.257,5.322-2.87,8.163-3.656
			c2.27-0.628,4.335-1.215,6.413-2.513c10.882-6.802,22.632-11.845,34.589-16.429c1.527-0.586,3.088-1.276,4.374-2.258
			c3.211-2.449,6.306-5.055,9.385-7.672c2.996-2.547,3.01-3.24,0.485-8.938c-1.855,0.151-3.873,0.167-5.828,0.527
			c-1.254,0.232-3.134,0.668-3.5,1.533c-2.087,4.945-6.999,6.167-10.959,8.278c-11.552,6.158-23.404,11.75-35.109,17.625
			c-2.408,1.208-4.746,2.583-6.997,4.064c-1.39,0.915-2.691,2.055-3.784,3.309c-1.329,1.524-0.894,3.121,0.527,4.408
			C937.857,1666.011,938.735,1666.538,939.553,1667.132z M911.478,552.416l0.107,0.559l-0.285-0.311
			c3.68-2.919,7.377-5.816,11.031-8.767c1.307-1.056,2.326-2.697,3.793-3.29c8.416-3.403,14.27-10.065,20.821-15.863
			c2.263-2.003,4.478-4.49,7.182-5.487c9.163-3.378,15.494-10.689,23.189-16.06c4.661-3.254,8.54-7.666,12.559-11.764
			c0.74-0.754,0.849-2.582,0.585-3.765c-0.45-2.013-2.487-2.523-4.047-2.037c-5.126,1.595-9.94,3.731-14.007,7.559
			c-3.663,3.448-7.738,6.551-11.977,9.267c-4.195,2.687-6.653,7.51-11.96,8.913c-2.052,0.543-4.128,2.599-5.305,4.512
			c-2.507,4.071-6.274,5.929-10.435,7.57c-2.491,0.983-5.102,2.081-7.115,3.775c-5.149,4.332-9.962,9.062-14.981,13.553
			c-1.501,1.343-3.144,2.587-4.885,3.592c-8.152,4.706-16.386,9.269-24.541,13.971c-5.855,3.376-11.736,6.725-17.407,10.392
			c-4.525,2.925-9.617,5.614-12.883,9.675c-3.775,4.696-8.788,7.355-13.239,10.883c-7.403,5.866-15.095,11.376-22.784,16.872
			c-5.172,3.697-10.423,7.316-15.88,10.565c-2.694,1.604-5.198,2.974-6.376,6.114c-0.777,2.07-2.981,2.324-4.783,3.245
			c-8.901,4.551-18.878,7.41-25.569,15.62c-0.834,1.022-2.022,1.788-3.129,2.552c-7.207,4.969-14.477,9.847-21.632,14.89
			c-1.862,1.313-3.388,3.103-5.029,4.639c1.087,2.113,2.375,2.873,4.318,2.382c6.937-1.749,13.157-4.806,19.127-8.864
			c9.945-6.76,19.659-13.827,30.707-19.023c8.152-3.834,15.819-9.329,21.639-16.421c4.853-5.912,10.844-8.726,17.99-10.278
			c2.861-0.622,6.16-1.687,8.047-3.691c2.216-2.356,4.723-3.553,7.422-4.918c5.725-2.892,11.93-5.33,16.753-9.37
			c5.026-4.209,9.573-8.974,14.73-13.192c6.262-5.123,13.112-9.362,19.377-14.436C898.618,561.113,905.167,556.91,911.478,552.416z
			 M442.258,796.514c1.069,3.881,3.419,4.925,5.722,4.525c8.037-1.399,16.103-3.536,21.68-9.828
			c3.638-4.104,7.925-6.659,12.832-7.182c6.715-0.717,10.76-4.939,15.087-9.052c0.915-0.87,1.458-2.286,1.801-3.552
			c0.236-0.872,0.172-2.409-0.361-2.779c-0.948-0.658-2.647-1.259-3.523-0.835c-8.776,4.25-17.443,8.722-26.154,13.108
			c-1.469,0.74-2.957,1.481-4.507,2.015C456.415,785.841,449.293,790.839,442.258,796.514z M499.561,828.309
			c4.785,4.092,4.787,4.013,6.863,4.107c10.968,0.497,20.053-4.738,29.144-9.741c1.914-1.054,3.288-3.316,4.552-5.255
			c0.952-1.46,0.857-3.247-0.681-4.526c-1.011-0.84-2.121-1.564-3.646-2.675c-5.819,2.216-11.94,4.016-17.555,6.826
			C512.067,820.135,506.36,824.153,499.561,828.309z M935.89,1636.789c4.794,6.942,4.732,6.732,11.247,4.808
			c4.584-1.354,8.821-3.221,12.844-5.761c4.854-3.065,9.822-5.947,14.742-8.906c2.769-1.666,3.975-4.334,2.962-6.564
			c-0.934-2.059-4.298-3.021-7.16-1.936c-0.931,0.352-1.729,1.039-2.61,1.535c-3.237,1.823-6.606,3.442-9.695,5.486
			c-4.566,3.021-9.107,5.805-14.871,4.311C940.668,1632.289,938.251,1634.566,935.89,1636.789z M513.189,759.656
			c1.626,1.051,2.599,2.079,3.751,2.356c5.598,1.343,10.55-0.667,15.293-3.368c2.036-1.159,3.929-3.346,6.003-3.5
			c4.373-0.323,7.4-3.071,11-4.763c0.533-0.251,0.842-0.98,1.132-1.338c0-2.099,0-4.024,0-6.424c-1.998,0-3.783-0.477-5.14,0.083
			c-5.556,2.294-10.987,4.895-16.454,7.402c-3.671,1.682-7.422,3.226-10.95,5.172C516.193,756.176,515.011,757.888,513.189,759.656z
			 M474.025,1592.731c2.921,2.59,5.832,5.174,8.379,7.432c5.807-1.688,8.065-5.452,8.815-10.523
			c0.523-3.536-0.419-6.125-3.591-7.367c-2.75-1.077-5.562-2.578-9.369-1.098C476.95,1584.748,475.495,1588.72,474.025,1592.731z
			 M526.725,1489.734c-5.999,2.322-10.094,3.268-13.316,6.702c-2.506,2.671-5.395,5.33-9.435,5.405
			c-7.406,0.136-12.538,4.491-17.482,9.19c-0.544,0.518-0.468,1.687-0.747,2.832c1.317,0.141,2.459,0.634,3.197,0.282
			c5.166-2.459,10.282-5.028,15.343-7.695c2.972-1.567,5.63-4.02,8.761-4.926c4.567-1.32,7.828-4.408,11.54-6.898
			C525.259,1494.173,525.384,1492.902,526.725,1489.734z M955.684,498.032c-6.434-0.923-10.775-0.79-14.326,2.104
			c-2.816,2.294-5.076,5.306-3.727,10.147c1.883-0.217,4.228,0.215,5.468-0.759C946.993,506.466,950.471,502.879,955.684,498.032z
			 M1391.542,402.09c-4.914-1.267-8.384,0.218-11.284,3.043c-0.737,0.719-0.611,2.479-0.61,3.761c0.001,1.59,0.999,2.46,2.577,2.079
			C1386.771,409.871,1389.572,406.939,1391.542,402.09z M1422.148,409.374c-0.191-1.546-3.358-3.328-4.792-2.403
			c-1.625,1.048-3.098,2.455-4.326,3.961c-1.278,1.566-0.035,4.034,2.099,4.6C1418.818,416.512,1422.617,413.179,1422.148,409.374z
			 M586.543,720.615c-4.426-1.035-7.538,2.179-11.229,3.114c-1.901,0.483-4.626,1.316-3.849,3.586
			c1.03,3.006,3.064-0.032,4.648-0.05C580.967,727.211,584.024,724.723,586.543,720.615z M1521.7,780.77
			c-3.089,1.19-5.058,1.606-6.553,2.679c-0.684,0.491-0.732,2.347-0.482,3.45c0.121,0.533,1.605,1.089,2.458,1.067
			C1520.805,787.872,1520.727,784.797,1521.7,780.77z M1870.989,930.234c1.74,1.55,2.71,2.943,4.003,3.385
			c0.885,0.302,2.685-0.417,3.228-1.24c0.541-0.818,0.301-2.45-0.135-3.502c-0.253-0.612-1.693-1.248-2.374-1.061
			C1874.298,928.206,1873.035,929.138,1870.989,930.234z M513.508,747.75c-3.275,0.202-6.596,0.275-8.438,4.108
			C510.363,751.168,510.363,751.168,513.508,747.75z M567.27,737.21c-3.668-2.625-5.596-1.753-7.032,0.426
			c-0.425,0.646-0.525,1.995-0.124,2.565c0.443,0.628,1.956,1.26,2.437,0.966C564.097,740.223,565.383,738.852,567.27,737.21z
			 M731.47,623.866c-0.395-0.755-0.58-1.558-0.896-1.612c-0.518-0.09-1.265,0.166-1.632,0.548c-0.228,0.236,0.071,0.977,0.134,1.492
			C729.839,624.158,730.604,624.021,731.47,623.866z M964.287,1682.697c-0.577,0.684-1.131,1.341-1.684,1.998
			c0.275,0.175,0.632,0.557,0.811,0.488c0.778-0.307,1.503-0.745,2.249-1.136C965.284,1683.674,964.905,1683.303,964.287,1682.697z
			 M1515.812,331.385c-0.709,0.457-1.475,0.703-1.513,1.032c-0.063,0.541,0.201,1.321,0.609,1.643
			c0.283,0.224,1.039-0.151,1.584-0.259C1516.275,333.028,1516.058,332.255,1515.812,331.385z M1409.858,414.167
			c-0.455,0.342-0.948,0.609-1.274,1.011c-0.137,0.169,0.058,0.899,0.142,0.906c0.504,0.043,1.019-0.049,1.531-0.097
			C1410.129,415.406,1410.002,414.824,1409.858,414.167z M523.477,742.07l-0.633-0.068l0.259,0.688L523.477,742.07z
			 M499.288,1264.602c-0.63-0.222-1.182-0.499-1.762-0.58c-0.218-0.03-0.499,0.396-0.752,0.614c0.433,0.331,0.854,0.897,1.303,0.919
			C498.454,1265.575,498.863,1264.961,499.288,1264.602z M1620.968,640.234l0.281,0.646l0.308-0.637L1620.968,640.234z"/>
		<path style="fill:#00306C;" d="M252.081,884.542c-5.822,4.629-10.83,8.146-17.224,9.412c-2.532,0.502-4.807,2.385-7.156,3.712
			c-7.629,4.308-15.165,8.792-22.901,12.897c-2.494,1.324-4.964,3.762-8.328,2.347c-0.058-0.7-0.379-1.628-0.118-1.839
			c8.622-6.997,17.298-13.926,26.655-21.416c3.076,0.509,6.809,0.804,10.771-1.133C239.107,885.916,245.18,885.422,252.081,884.542z
			"/>
		<path style="fill:#00306C;" d="M1525.832,266.515c1.612-0.13,2.587-0.21,3.47-0.281c4.33,4.9,1.216,12.402,6.478,16.852
			c-2.26,5.633-3.251,11.76-7.777,16.753c-0.818-0.984-1.984-1.816-1.857-2.318C1528.713,287.44,1526.338,277.43,1525.832,266.515z"
			/>
		<path style="fill:#00306C;" d="M1458.86,287.129c7.19,0.561,12.522,0.978,17.595,1.375c2.739,2.451,2.716,4.791,0.108,7.727
			c-3.821,0-8.102,0-13.347,0C1462.145,293.993,1460.749,291.075,1458.86,287.129z"/>
		<path style="fill:#00306C;" d="M1647.176,595.651c0.225,5.963-0.664,9.683-2.618,14.103c-3.541-2.767-6.621-5.174-9.598-7.5
			C1636.905,596.121,1642.608,599.126,1647.176,595.651z"/>
		<path style="fill:#00306C;" d="M425.58,1599.453c-0.463-0.226-0.619-1.153-0.842-1.785c-0.692-1.953-1.383-4.099,0.918-5.318
			c0.939-0.498,2.723-0.412,3.605,0.181c2.599,1.745,2.852,3.521,1.486,6.029C429.388,1601.056,427.44,1600.362,425.58,1599.453z"/>
		<path style="fill:#00306C;" d="M1437.627,300.19c2.3,1.888,4.014,3.295,6.821,5.599c-4.397,0-7.285,0-10.106,0
			C1432.811,301.848,1436.606,302.429,1437.627,300.19z"/>
		<path style="fill:#00306C;" d="M451.362,1629.382c1.061,2.848,1.601,4.296,2.084,5.591c-1.543,2.028-3.432,3.194-5.042,1.271
			C446.398,1633.846,448.623,1632.26,451.362,1629.382z"/>
		<path style="fill:#00306C;" d="M691.212,642.557c2.376-2.812,5.601-4.206,8.604-5.634c0.625,0.47,1.142,0.753,1.109,0.849
			c-0.581,1.689-1.229,3.355-1.914,5.16c-2.968-0.247-5.516-0.459-8.065-0.672L691.212,642.557z"/>
		<path style="fill:#00306C;" d="M990.281,461.152c-1.128,3.981-4.529,4.854-9.489,7.142c3.234-4.796,6.508-5.818,9.74-6.901
			L990.281,461.152z"/>
		<path style="fill:#00306C;" d="M713.917,632.094c-2.126,0.823-4.209,1.898-7.418,1.534c2.249-2.063,3.868-3.549,6.257-5.741
			c0.463,2.134,0.713,3.287,0.963,4.441L713.917,632.094z"/>
		<path style="fill:#00306C;" d="M1658.31,728.163c3.074-0.388,4.559,0.807,4.45,3.696c-0.02,0.539-0.647,1.538-0.845,1.503
			c-0.749-0.136-1.77-0.428-2.08-0.995C1659.144,731.106,1658.819,729.646,1658.31,728.163z"/>
		<path style="fill:#00306C;" d="M690.504,1792.589c-1.028,1.472-2.059,2.912-3.961,1.413c-0.361-0.284-0.516-1.564-0.259-1.78
			C687.724,1791.015,689.2,1791.065,690.504,1792.589z"/>
		<path style="fill:#00306C;" d="M1637.818,615.749c0.457,2.823-0.304,5.267-2.328,7.403c-2.353-2.969,1.328-4.707,1.393-7.135
			l-0.228-0.037c0.499,0.42,0.973,0.394,1.424-0.076L1637.818,615.749z"/>
		<path style="fill:#00306C;" d="M1773.316,840.128c0.256-1.839-0.432-4.032,2.057-5.182c0.152,2.161-1.302,3.458-2.278,4.966
			L1773.316,840.128z"/>
		<path style="fill:#00306C;" d="M384.484,1563.767c1.156,0.088,2.084-0.033,2.815,0.291c0.403,0.179,0.474,1.104,0.695,1.693
			c-0.731-0.036-1.537,0.103-2.17-0.165C385.355,1565.386,385.109,1564.658,384.484,1563.767z"/>
		<path style="fill:#00306C;" d="M1636.375,585.36c0.19,0.264,0.482,0.504,0.551,0.796c0.195,0.826,0.677,2.2,0.37,2.42
			c-1.275,0.916-2.356,0.373-2.931-1.094l-0.118,0.167c0.792-0.8,1.586-1.599,2.378-2.398L1636.375,585.36z"/>
		<path style="fill:#00306C;" d="M339.673,877.006c-0.651-2.687,0.89-3.822,3.15-4.449l-0.253-0.255
			c0.32,2.484-2.191,3.041-3.164,4.646L339.673,877.006z"/>
		<path style="fill:#00306C;" d="M887.037,518.251c-0.192,1.73,0.725,4.2-2.574,3.855l0.219,0.229
			c0.838-1.385,1.677-2.769,2.516-4.154L887.037,518.251z"/>
		<path style="fill:#00306C;" d="M342.823,872.557c1.522-0.637,3.043-1.274,4.564-1.911l-0.244-0.302
			c-0.973,1.939-2.638,2.264-4.573,1.958L342.823,872.557z"/>
		<path style="fill:#00306C;" d="M339.406,876.947c-0.452,0.151-0.905,0.301-1.358,0.451c0.542-0.131,1.083-0.261,1.625-0.393
			L339.406,876.947z"/>
		<polygon style="fill:#00306C;" points="293.975,892.265 293.453,891.964 294.056,891.814 		"/>
		<path style="fill:#00306C;" d="M1893.513,915.706c0.214-0.53,0.393-1.078,0.675-1.57c0.046-0.082,0.533,0.087,0.815,0.141
			c-0.57,0.417-1.14,0.834-1.71,1.251L1893.513,915.706z"/>
		<path style="fill:#00306C;" d="M1893.292,915.527c-1.584,0.628-3.167,1.257-4.75,1.885l0.205,0.193
			c1.588-0.633,3.177-1.266,4.765-1.9L1893.292,915.527z"/>
		<path style="fill:#00306C;" d="M1466.472,341.653c-0.194-0.091-0.388-0.181-0.582-0.273c0.276-0.17,0.552-0.341,0.828-0.512
			C1466.637,341.13,1466.554,341.392,1466.472,341.653z"/>
		<path style="fill:#00306C;" d="M495.772,1328.833c-0.289,0.476-0.48,1.132-0.902,1.36c-0.267,0.144-0.879-0.349-1.337-0.556
			c0.23-0.182,0.44-0.478,0.694-0.521c0.559-0.096,1.139-0.065,1.71-0.085L495.772,1328.833z"/>
		<path style="fill:#00306C;" d="M1086.535,420.628c0.362-0.712,0.724-1.425,1.086-2.137c0.277,0.706,0.555,1.412,0.832,2.118
			l0.2-0.185c-0.768-0.001-1.536-0.002-2.305-0.002L1086.535,420.628z"/>
		<path style="fill:#00306C;" d="M429.978,1588.243c-0.178,0.066-0.355,0.132-0.533,0.197c0.111-0.294,0.222-0.588,0.334-0.882
			C429.845,1587.786,429.911,1588.015,429.978,1588.243z"/>
		<path style="fill:#00306C;" d="M992.826,458.939c0.479-0.362,0.94-0.756,1.453-1.061c0.099-0.058,0.404,0.231,0.613,0.359
			c-0.765,0.141-1.531,0.281-2.296,0.422C992.596,458.658,992.826,458.939,992.826,458.939z"/>
		<path style="fill:#00306C;" d="M909.666,504.014c0.286-0.416,0.572-0.832,0.858-1.248c-0.354,0.361-0.71,0.721-1.065,1.082
			C909.459,503.848,909.667,504.014,909.666,504.014z"/>
		<path style="fill:#00306C;" d="M887.197,518.182c-0.523-0.204-1.047-0.409-1.57-0.613c0.035-0.01,0.099-0.033,0.102-0.027
			c0.139,0.286,0.203,0.692,0.429,0.827c0.199,0.119,0.579-0.067,0.879-0.118L887.197,518.182z"/>
		<path style="fill:#00306C;" d="M900.69,1708.508c0.248-0.086,0.496-0.172,0.745-0.258c0.063,0.326,0.127,0.652,0.189,0.978
			c-0.261-0.052-0.554-0.048-0.771-0.175C900.734,1708.984,900.74,1708.697,900.69,1708.508z"/>
		<path style="fill:#00306C;" d="M1638.081,615.905c0.463-0.24,0.926-0.48,1.389-0.72c-0.292,0.101-0.584,0.203-0.877,0.303
			c-0.258,0.088-0.516,0.175-0.774,0.262L1638.081,615.905z"/>
		<path style="fill:#00306C;" d="M1630.433,632.58c0.609-1.336,1.217-2.672,1.826-4.008l-0.077-0.183
			c-0.664,1.325-1.327,2.651-1.99,3.977L1630.433,632.58z"/>
		<polygon style="fill:#00306C;" points="1535.521,261.157 1535.297,260.517 1535.892,260.59 		"/>
		<polygon style="fill:#00306C;" points="1448.854,298.672 1448.679,298.265 1448.723,298.936 		"/>
		<polygon style="fill:#00306C;" points="1357.222,388.075 1357.505,387.603 1357.039,387.935 		"/>
		<polygon style="fill:#00306C;" points="1183.932,391.908 1184.385,391.619 1183.689,391.813 		"/>
		<path style="fill:#00306C;" d="M1221.039,394.321c0.723-0.81,1.445-1.62,2.168-2.43l-0.314-0.157
			c-0.677,0.743-1.354,1.486-2.032,2.23L1221.039,394.321z"/>
		<polygon style="fill:#00306C;" points="1019.232,440.788 1019.786,440.48 1019.294,440.713 		"/>
		<path style="fill:#00306C;" d="M1019.294,440.713c-0.24-0.008-0.48-0.017-0.72-0.026c0.255,0.258,0.51,0.517,0.766,0.776
			c-0.036-0.225-0.072-0.45-0.108-0.676L1019.294,440.713z"/>
		<polygon style="fill:#00306C;" points="1003.099,453.029 1003.474,452.458 1003.067,452.949 		"/>
		<path style="fill:#00306C;" d="M1003.067,452.949c-0.232,0.141-0.464,0.281-0.697,0.421c0.243-0.113,0.485-0.227,0.728-0.34
			C1003.099,453.029,1003.067,452.949,1003.067,452.949z"/>
		<path style="fill:#00306C;" d="M992.596,458.659c-0.771,0.831-1.543,1.663-2.315,2.493l0.251,0.241
			c0.765-0.818,1.53-1.636,2.294-2.454C992.826,458.939,992.596,458.658,992.596,458.659z"/>
		<polygon style="fill:#00306C;" points="976.92,471.425 977.138,470.782 976.705,471.211 		"/>
		<path style="fill:#00306C;" d="M974.55,473.392c0.79-0.656,1.58-1.311,2.37-1.967c0,0-0.215-0.214-0.215-0.213
			c-0.724,0.704-1.449,1.409-2.173,2.114L974.55,473.392z"/>
		<path style="fill:#00306C;" d="M974.532,473.326c-0.236,0.125-0.471,0.249-0.707,0.374c0.242-0.102,0.483-0.205,0.725-0.307
			C974.55,473.392,974.532,473.326,974.532,473.326z"/>
		<path style="fill:#00306C;" d="M968.66,477.439c0.164-0.077,0.329-0.155,0.493-0.231c-0.23-0.002-0.46-0.005-0.689-0.007
			L968.66,477.439z"/>
		<path style="fill:#00306C;" d="M966.372,480.087c0.763-0.882,1.526-1.766,2.289-2.648l-0.196-0.238
			c-0.758,0.879-1.516,1.757-2.274,2.635L966.372,480.087z"/>
		<polygon style="fill:#00306C;" points="934.344,484.495 934.861,484.339 934.772,484.825 		"/>
		<path style="fill:#00306C;" d="M929.489,499.732c-0.165,0.509-0.33,1.017-0.495,1.526c-1.444-1.366,0.204-1.024,0.722-1.306
			L929.489,499.732z"/>
		<polygon style="fill:#00306C;" points="909.459,503.848 909.075,504.322 909.667,504.014 		"/>
		<polygon style="fill:#00306C;" points="899.122,512.082 899.561,511.738 899.133,512.042 		"/>
		<path style="fill:#00306C;" d="M899.133,512.042c-0.237-0.025-0.472-0.049-0.709-0.074c0.246,0.265,0.492,0.53,0.738,0.795
			c-0.013-0.227-0.026-0.454-0.04-0.681C899.122,512.082,899.133,512.042,899.133,512.042z"/>
		<path style="fill:#00306C;" d="M811.453,568.925c0.858-0.034,1.716-0.067,2.573-0.101l0.291-0.151
			c-1.03,0.001-2.061,0.001-3.091,0.001L811.453,568.925z"/>
		<polygon style="fill:#00306C;" points="811.225,568.674 811.275,569.27 811.453,568.925 		"/>
		<path style="fill:#00306C;" d="M1589.565,585.424c-0.708,0.704-1.416,1.408-2.126,2.113c-0.001,0.001,0.138,0.164,0.138,0.164
			c0.004-0.801,0.008-1.603,0.012-2.404l-0.259,0.226c0.799,0.001,1.598,0.001,2.398,0.002L1589.565,585.424z"/>
		<path style="fill:#00306C;" d="M1636.884,616.017c-0.152-0.172-0.306-0.345-0.459-0.517c0.077,0.16,0.155,0.32,0.231,0.48
			L1636.884,616.017z"/>
		<path style="fill:#00306C;" d="M717.848,626.052c-0.244-0.008-0.488-0.016-0.731-0.024c0.259,0.262,0.518,0.524,0.778,0.786
			c-0.04-0.228-0.08-0.457-0.119-0.684L717.848,626.052z"/>
		<polygon style="fill:#00306C;" points="1632.259,628.571 1632.526,627.864 1632.182,628.389 		"/>
		<path style="fill:#00306C;" d="M628.099,632.556c0.057,0.078,0.114,0.157,0.17,0.236L628.099,632.556z"/>
		<path style="fill:#00306C;" d="M1618.164,693.56c0.081-0.284,0.161-0.568,0.242-0.852c-0.143,0.222-0.285,0.446-0.427,0.67
			L1618.164,693.56z"/>
		<path style="fill:#00306C;" d="M416.392,793.082c-0.237-0.001-0.475-0.002-0.712-0.003c0.258,0.247,0.515,0.494,0.773,0.741
			c-0.051-0.22-0.102-0.44-0.152-0.66L416.392,793.082z"/>
		<path style="fill:#00306C;" d="M1770.918,842.589c0.799-0.821,1.599-1.64,2.398-2.461l-0.22-0.216
			c-0.793,0.812-1.587,1.626-2.381,2.438L1770.918,842.589z"/>
		<polygon style="fill:#00306C;" points="332.627,1208.051 332.412,1208.79 332.602,1208.334 		"/>
		<path style="fill:#00306C;" d="M381.821,1279.636c-0.721,0.667-1.442,1.333-2.163,1.999l0.245,0.273
			c0.693-0.692,1.385-1.383,2.079-2.075L381.821,1279.636z"/>
		<path style="fill:#00306C;" d="M379.657,1281.635c-0.733,0.613-1.466,1.226-2.199,1.838l-0.004,0.268
			c0.816-0.61,1.632-1.222,2.448-1.833L379.657,1281.635z"/>
		<polygon style="fill:#00306C;" points="377.458,1283.474 377.253,1284.24 377.454,1283.742 		"/>
		<path style="fill:#00306C;" d="M251.495,1394.166c0.239-0.476,0.48-0.952,0.72-1.428c1.152,1.437-0.128,1.165-0.885,1.262
			C251.33,1394.001,251.495,1394.166,251.495,1394.166z"/>
		<path style="fill:#00306C;" d="M249.444,1395.918c0.683-0.584,1.365-1.168,2.049-1.752c0.001,0.001-0.163-0.164-0.164-0.166
			c-0.658,0.571-1.315,1.142-1.973,1.715L249.444,1395.918z"/>
		<polygon style="fill:#00306C;" points="249.357,1395.715 249.045,1396.338 249.444,1395.918 		"/>
		<path style="fill:#00306C;" d="M1371.752,1646.482c-0.79,0.786-1.581,1.572-2.37,2.358l0.328,0.13
			c-0.024-0.85-0.049-1.699-0.074-2.549c0,0-0.206,0.313-0.206,0.313c0.817,0.011,1.634,0.021,2.451,0.032L1371.752,1646.482z"/>
		<path style="fill:#00306C;" d="M713.68,1774.429c-0.182,0.135-0.365,0.27-0.547,0.404c0.161-0.06,0.323-0.119,0.485-0.178
			L713.68,1774.429z"/>
		<polygon style="fill:#00306C;" points="628.269,632.791 628.556,632.133 628.099,632.556 		"/>
		<path style="fill:#00306C;" d="M1218.507,409.62c-0.164-0.194-0.488-0.534-0.468-0.556c0.392-0.424,0.824-0.811,1.248-1.206
			c0.241,0.363,0.481,0.726,0.722,1.089C1219.508,409.172,1219.008,409.396,1218.507,409.62z"/>
	</g>
	<polygon style="fill:#FF3517;" points="1688.751,705.1 1710.849,705.1 1710.849,410.472 410.472,410.472 410.472,1330.365 
		432.569,1330.365 432.569,432.569 1688.751,432.569 	"/>
	<g>
		<path style="fill:#FFFFFF;" d="M604.726,931.844c-12.825,2.755-23.155,10.214-31.01,22.385
			c-7.847,12.17-12.35,27.592-13.515,46.265c-2.417,38.813,10.962,55.084,40.159,48.812c8.819-1.892,17.443-4.964,25.881-9.236
			c8.423-4.259,16.94-9.035,25.521-14.329l-2.877,46.079c-17.105,11.034-36.16,18.802-57.17,23.32
			c-30.103,6.466-52.625,2.597-67.579-11.616c-14.955-14.214-21.385-38.016-19.299-71.406c1.302-20.888,6.329-40.065,15.098-57.558
			c8.761-17.494,20.701-32.067,35.836-43.705c15.127-11.653,32.556-19.594,52.286-23.838c21.558-4.633,41.864-4.316,60.918,0.935
			l-19.19,46.46c-7.143-1.913-14.328-3.273-21.543-4.078C621.018,929.528,613.185,930.024,604.726,931.844z"/>
		<path style="fill:#FFFFFF;" d="M866.201,933.657c-2.115,33.937-11.962,61.515-29.52,82.706
			c-17.566,21.205-42.216,35.21-73.952,42.036c-31.29,6.718-54.718,2.993-70.305-11.171c-15.58-14.17-22.306-38.231-20.191-72.168
			c2.093-33.577,11.991-60.998,29.693-82.274c17.702-21.277,42.381-35.318,74.024-42.116c31.736-6.819,55.25-3.201,70.521,10.854
			C861.748,875.58,868.323,899.62,866.201,933.657z M728.964,963.141c-2.431,39.008,9.768,55.624,36.591,49.856
			c13.646-2.935,24.054-9.841,31.24-20.731c7.185-10.89,11.408-26.363,12.652-46.424c1.259-20.141-1.158-34.297-7.243-42.475
			c-6.085-8.179-15.767-10.84-29.039-7.992C746.156,901.188,731.417,923.774,728.964,963.141z"/>
		<path style="fill:#FFFFFF;" d="M968.831,1011.385l-31.729-136.531l-1.223,0.266c0.367,24.334,0.122,43.353-0.734,57.055
			l-5.467,87.626l-47.748,10.258l12.588-201.737l71.751-15.407l32.671,134.28l1.093-0.231l49.726-151.989l71.888-15.451
			l-12.581,201.722l-49.525,10.646l5.518-88.446c0.287-4.603,0.683-9.717,1.165-15.364c0.482-5.633,1.956-19.522,4.409-41.648
			l-1.223,0.259l-49.287,153.673L968.831,1011.385z"/>
		<path style="fill:#FFFFFF;" d="M1138.07,975.017l12.587-201.722l54.157-11.639l-12.588,201.722L1138.07,975.017z"/>
		<path style="fill:#FFFFFF;" d="M1411.255,916.322l-70.664,15.177l-63.982-126.468l-1.224,0.273
			c0.332,21.967,0.13,38.857-0.604,50.625l-5.675,90.935l-47.74,10.257l12.581-201.729l70.391-15.127l63.831,124.598l0.82-0.172
			c-0.007-20.055,0.374-36.253,1.144-48.582l5.69-91.201l48.021-10.322L1411.255,916.322z"/>
		<path style="fill:#FFFFFF;" d="M1527.84,774.741l86.079-18.494l-6.783,108.724c-23.874,13.113-49.819,22.68-77.829,28.708
			c-30.744,6.603-53.941,2.69-69.593-11.725c-15.659-14.429-22.442-38.339-20.356-71.729c2.028-32.57,12.789-59.875,32.296-81.943
			c19.501-22.083,45.798-36.67,78.908-43.777c12.545-2.705,24.32-4.05,35.311-4.057c10.984,0,20.514,0.95,28.556,2.849
			l-19.723,46.438c-13.919-4.085-29.47-4.287-46.662-0.589c-15.731,3.38-28.218,11.171-37.461,23.37
			c-9.236,12.192-14.458,27.902-15.66,47.129c-1.173,18.861,1.82,32.398,8.977,40.612c7.156,8.222,18.054,10.754,32.699,7.603
			c7.998-1.712,15.415-4.078,22.248-7.092l1.971-31.592l-35.606,7.654L1527.84,774.741z"/>
	</g>
	<g>
		<path style="fill:#FFFFFF;" d="M733.122,1268.594c-1.036,16.53-6.1,32.096-15.184,46.698c-9.1,14.609-21.673,27.146-37.742,37.605
			c-16.062,10.466-34.606,17.96-55.632,22.478c-17.551,3.776-32.181,5.69-43.92,5.755c-11.747,0.065-23.852-1.619-36.325-5.057
			l4-64.177c13.148,4.137,26.916,6.603,41.331,7.402c14.415,0.798,27.751-0.115,40.008-2.755
			c10.574-2.266,18.436-5.783,23.594-10.552c5.157-4.769,7.926-10.063,8.286-15.897c0.23-3.647-0.569-6.625-2.374-8.941
			c-1.813-2.302-4.833-4.38-9.035-6.236c-4.215-1.848-15.551-5.057-33.994-9.603c-16.688-4.208-29.096-9.091-37.231-14.667
			c-8.128-5.56-13.969-12.703-17.508-21.414c-3.554-8.711-4.913-19.637-4.093-32.757c1.532-24.55,11.559-45.589,30.074-63.126
			c18.515-17.522,43.216-29.606,74.103-36.238c27.276-5.87,54.695-5.459,82.259,1.209l-25.276,60.292
			c-23.924-6.128-44.842-7.28-62.738-3.431c-9.25,1.993-16.084,5.071-20.493,9.257c-4.409,4.194-6.769,8.718-7.071,13.573
			c-0.331,5.23,2.057,9.329,7.143,12.315c5.086,2.984,19.127,7.401,42.116,13.257c22.068,5.452,37.145,13.149,45.245,23.097
			C730.755,1236.644,734.244,1250.612,733.122,1268.594z"/>
		<path style="fill:#FFFFFF;" d="M1012.63,1156.556c-2.798,44.842-15.796,81.275-39.001,109.277
			c-23.205,28.01-55.775,46.525-97.711,55.531c-41.339,8.89-72.297,3.971-92.884-14.753c-20.586-18.716-29.484-50.503-26.679-95.344
			c2.762-44.367,15.839-80.598,39.231-108.709c23.392-28.103,55.991-46.654,97.811-55.638c41.921-9.013,72.988-4.237,93.172,14.329
			C1006.746,1079.82,1015.435,1111.584,1012.63,1156.556z M831.307,1195.514c-3.208,51.538,12.905,73.491,48.352,65.874
			c18.025-3.87,31.779-13.005,41.274-27.391c9.494-14.393,15.062-34.836,16.716-61.328c1.669-26.622-1.525-45.331-9.567-56.135
			c-8.042-10.804-20.832-14.314-38.375-10.545C854.023,1113.656,834.558,1143.5,831.307,1195.514z"/>
		<path style="fill:#FFFFFF;" d="M1295.705,1095.731c-2.798,44.842-15.796,81.275-39.001,109.277
			c-23.205,28.01-55.775,46.525-97.71,55.531c-41.339,8.883-72.297,3.971-92.884-14.753c-20.586-18.724-29.484-50.503-26.678-95.344
			c2.762-44.367,15.839-80.605,39.23-108.709c23.392-28.11,55.991-46.661,97.811-55.638c41.921-9.013,72.996-4.237,93.172,14.328
			C1289.822,1018.995,1298.511,1050.76,1295.705,1095.731z M1114.383,1134.689c-3.208,51.53,12.905,73.491,48.352,65.874
			c18.026-3.87,31.779-13.005,41.274-27.391c9.495-14.393,15.062-34.836,16.716-61.328c1.669-26.622-1.525-45.331-9.567-56.135
			c-8.042-10.804-20.831-14.314-38.368-10.545C1137.098,1052.832,1117.634,1082.669,1114.383,1134.689z"/>
		<path style="fill:#FFFFFF;" d="M1574.782,1167.604l-93.366,20.055l-84.532-167.088l-1.626,0.345
			c0.431,29.045,0.172,51.351-0.792,66.903l-7.495,120.138l-63.084,13.552l16.623-266.532l92.999-19.982l84.339,164.62l1.086-0.23
			c-0.015-26.5,0.489-47.892,1.51-64.177l7.51-120.506l63.449-13.63L1574.782,1167.604z"/>
	</g>
	<g>
		<path style="fill:#FFFFFF;" d="M791.069,1424.569c-0.288,4.474-1.654,8.689-4.115,12.646c-2.46,3.956-5.876,7.358-10.229,10.2
			c-4.352,2.834-9.38,4.862-15.076,6.086c-4.755,1.021-8.718,1.539-11.898,1.561c-3.179,0.014-6.459-0.439-9.84-1.375l1.079-17.385
			c3.561,1.115,7.293,1.784,11.199,2.007c3.906,0.216,7.517-0.029,10.84-0.748c2.862-0.619,4.992-1.568,6.388-2.863
			c1.41-1.295,2.157-2.726,2.258-4.302c0.057-0.992-0.158-1.798-0.648-2.431c-0.489-0.619-1.309-1.18-2.453-1.684
			c-1.144-0.503-4.208-1.366-9.207-2.604c-4.525-1.136-7.891-2.467-10.092-3.97c-2.201-1.511-3.784-3.446-4.747-5.812
			c-0.957-2.352-1.324-5.316-1.108-8.869c0.417-6.653,3.136-12.357,8.157-17.105c5.02-4.747,11.71-8.02,20.076-9.818
			c7.387-1.59,14.825-1.481,22.291,0.331l-6.848,16.328c-6.488-1.661-12.156-1.97-17.004-0.921
			c-2.511,0.533-4.359,1.367-5.554,2.504c-1.194,1.137-1.827,2.359-1.913,3.676c-0.086,1.417,0.554,2.525,1.935,3.345
			c1.374,0.806,5.186,2,11.415,3.582c5.97,1.482,10.063,3.568,12.257,6.259C790.422,1415.908,791.371,1419.692,791.069,1424.569z"/>
		<path style="fill:#FFFFFF;" d="M836.241,1436.495l-19.292,4.15l3.51-56.271l-17.435,3.748l0.992-15.954l54.114-11.631l-1,15.954
			l-17.379,3.74L836.241,1436.495z"/>
		<path style="fill:#FFFFFF;" d="M911.64,1420.296l-2.669-12.782l-23.198,4.985l-4.459,14.314l-21.199,4.553l27.816-77.52
			l25.744-5.539l19.069,67.456L911.64,1420.296z M905.971,1392.373l-2.345-11.199c-0.547-2.482-1.209-5.697-1.971-9.66
			c-0.762-3.964-1.251-6.812-1.467-8.552c-0.403,1.741-1.151,4.625-2.252,8.667c-1.1,4.036-3.488,12.041-7.157,24.011
			L905.971,1392.373z"/>
		<path style="fill:#FFFFFF;" d="M972.795,1362.321l13.969-29.42l20.903-4.489l-26.234,49.057l-1.762,28.211l-19.436,4.172
			l1.727-27.607l-20.716-39.562l21.003-4.517L972.795,1362.321z"/>
		<path style="fill:#FFFFFF;" d="M1076.368,1384.9l-19.292,4.151l3.51-56.272l-17.436,3.748l1-15.954l54.106-11.624l-0.993,15.954
			l-17.385,3.733L1076.368,1384.9z"/>
		<path style="fill:#FFFFFF;" d="M1173.179,1292.85l-2.712,43.461c-0.59,9.459-3.698,17.35-9.315,23.673
			c-5.611,6.323-13.394,10.552-23.363,12.696c-9.74,2.086-17.055,1.18-21.967-2.734c-4.906-3.92-7.078-10.602-6.489-20.054
			l2.741-43.921l19.392-4.158l-2.64,42.381c-0.324,5.107,0.388,8.603,2.129,10.502c1.748,1.899,4.46,2.453,8.143,1.669
			c3.942-0.849,6.863-2.604,8.79-5.28c1.913-2.669,3.035-6.603,3.359-11.812l2.64-42.281L1173.179,1292.85z"/>
		<path style="fill:#FFFFFF;" d="M1255.654,1346.381l-25.305,5.438l-22.903-45.288l-0.446,0.101
			c0.129,7.87,0.057,13.912-0.209,18.126l-2.035,32.556l-17.091,3.668l4.503-72.218l25.205-5.416l22.845,44.604l0.302-0.057
			c0-7.179,0.13-12.976,0.41-17.393l2.036-32.656l17.192-3.69L1255.654,1346.381z"/>
		<path style="fill:#FFFFFF;" d="M1317.479,1333.088l-42.389,9.114l4.503-72.226l42.396-9.106l-0.978,15.659l-23.104,4.963
			l-0.705,11.358l21.392-4.589l-0.979,15.652l-21.392,4.604l-0.848,13.638l23.097-4.963L1317.479,1333.088z"/>
		<path style="fill:#FFFFFF;" d="M1396.941,1278.881c-0.748,12.055-4.611,22.04-11.581,29.974
			c-6.963,7.933-16.393,13.17-28.276,15.731l-23.097,4.963l4.503-72.225l24.716-5.308c11.459-2.468,20.126-1.403,25.988,3.186
			C1395.056,1259.79,1397.646,1267.681,1396.941,1278.881z M1376.872,1283.873c0.417-6.618-0.576-11.25-2.964-13.883
			c-2.388-2.64-6.214-3.395-11.494-2.258l-5.61,1.201l-2.532,40.461l4.302-0.921c5.855-1.259,10.264-3.899,13.221-7.934
			C1374.736,1296.504,1376.433,1290.951,1376.872,1283.873z"/>
	</g>
</g>
</svg>
